<svg width="29" height="35" viewBox="0 0 29 35" fill="none" xmlns="http://www.w3.org/2000/svg">
<path d="M27.5714 14.354C27.5714 24.7404 14.2857 33.643 14.2857 33.643C14.2857 33.643 1 24.7404 1 14.354C1 10.8123 2.39974 7.41563 4.89129 4.91128C7.38285 2.40693 10.7621 1 14.2857 1C17.8093 1 21.1886 2.40693 23.6801 4.91128C26.1717 7.41563 27.5714 10.8123 27.5714 14.354Z" stroke="#C82132" stroke-width="2" stroke-linecap="round" stroke-linejoin="round"/>
<path d="M14.286 18.8052C16.7319 18.8052 18.7146 16.8123 18.7146 14.3539C18.7146 11.8955 16.7319 9.90259 14.286 9.90259C11.8402 9.90259 9.85742 11.8955 9.85742 14.3539C9.85742 16.8123 11.8402 18.8052 14.286 18.8052Z" stroke="#C82132" stroke-width="2" stroke-linecap="round" stroke-linejoin="round"/>
</svg>
