<svg width="32" height="32" viewBox="0 0 32 32" fill="none" xmlns="http://www.w3.org/2000/svg">
<path d="M30.3586 23.138V27.5894C30.3603 28.0026 30.2761 28.4116 30.1114 28.7902C29.9467 29.1689 29.7051 29.5087 29.4022 29.7881C29.0992 30.0675 28.7416 30.2801 28.3521 30.4125C27.9627 30.5449 27.55 30.5941 27.1406 30.5569C22.5981 30.0608 18.2347 28.5006 14.401 26.0017C10.8343 23.7236 7.81034 20.6841 5.54389 17.0991C3.04909 13.2282 1.49653 8.8211 1.01198 4.23477C0.975093 3.82446 1.02361 3.41092 1.15443 3.02049C1.28526 2.63005 1.49554 2.27128 1.77187 1.967C2.04821 1.66273 2.38455 1.41962 2.75948 1.25316C3.13441 1.0867 3.53972 1.00053 3.9496 1.00014H8.37817C9.09458 0.993057 9.7891 1.24805 10.3323 1.7176C10.8755 2.18714 11.2303 2.8392 11.3306 3.55223C11.5175 4.97675 11.8641 6.37545 12.3639 7.72163C12.5625 8.25271 12.6055 8.82989 12.4877 9.38477C12.37 9.93965 12.0965 10.449 11.6996 10.8524L9.82484 12.7368C11.9263 16.4515 14.9863 19.5272 18.682 21.6394L20.5567 19.755C20.9581 19.3561 21.4648 19.0812 22.0169 18.9628C22.5689 18.8445 23.1431 18.8877 23.6715 19.0873C25.0108 19.5897 26.4024 19.9381 27.8196 20.126C28.5367 20.2277 29.1916 20.5907 29.6597 21.1461C30.1279 21.7014 30.3766 22.4104 30.3586 23.138Z" stroke="#C82132" stroke-width="2" stroke-linecap="round" stroke-linejoin="round"/>
</svg>
